<?xml version="1.0" encoding="UTF-8"?>
<svg version="1.1" xmlns="http://www.w3.org/2000/svg" width="788" height="449">
<path d="M0 0 C39.34775253 -0.02202571 78.69549927 -0.04049744 118.04325619 -0.05106533 C122.68354125 -0.05231611 127.32382629 -0.05361042 131.96411133 -0.05493164 C132.88794898 -0.05519395 133.81178664 -0.05545626 134.76361937 -0.05572652 C149.74265437 -0.06008354 164.72168555 -0.06797127 179.70071828 -0.0771528 C195.0587214 -0.08648844 210.41672251 -0.09205542 225.77472836 -0.09408849 C235.25934853 -0.09546391 244.74395791 -0.09981548 254.22857476 -0.10791647 C260.72337242 -0.11318283 267.21816447 -0.11480455 273.71296411 -0.11350138 C277.46591423 -0.11285782 281.21884543 -0.11387744 284.97179222 -0.11920547 C289.03084424 -0.12492635 293.08985543 -0.1230012 297.14891052 -0.12025452 C298.9479958 -0.12462378 298.9479958 -0.12462378 300.78342623 -0.12908131 C301.86178651 -0.12709026 302.94014679 -0.12509921 304.05118465 -0.12304783 C304.98947359 -0.12342755 305.92776253 -0.12380727 306.89448446 -0.1241985 C309 0 309 0 310 1 C310 36.31 310 71.62 310 108 C207.7 108 105.4 108 0 108 C0 72.36 0 36.72 0 0 Z " fill="#9C5FDF" transform="translate(387,204)"/>
<path d="M0 0 C31.68 0 63.36 0 96 0 C96 31.35 96 62.7 96 95 C64.32 95 32.64 95 0 95 C0 63.65 0 32.3 0 0 Z " fill="#9C5FDF" transform="translate(595,211)"/>
<path d="M0 0 C31.35 0 62.7 0 95 0 C95 31.35 95 62.7 95 95 C63.65 95 32.3 95 0 95 C0 63.65 0 32.3 0 0 Z " fill="#9C5FDF" transform="translate(494,211)"/>
<path d="M0 0 C39.34775253 -0.02202571 78.69549927 -0.04049744 118.04325619 -0.05106533 C122.68354125 -0.05231611 127.32382629 -0.05361042 131.96411133 -0.05493164 C132.88794898 -0.05519395 133.81178664 -0.05545626 134.76361937 -0.05572652 C149.74265437 -0.06008354 164.72168555 -0.06797127 179.70071828 -0.0771528 C195.0587214 -0.08648844 210.41672251 -0.09205542 225.77472836 -0.09408849 C235.25934853 -0.09546391 244.74395791 -0.09981548 254.22857476 -0.10791647 C260.72337242 -0.11318283 267.21816447 -0.11480455 273.71296411 -0.11350138 C277.46591423 -0.11285782 281.21884543 -0.11387744 284.97179222 -0.11920547 C289.03084424 -0.12492635 293.08985543 -0.1230012 297.14891052 -0.12025452 C298.9479958 -0.12462378 298.9479958 -0.12462378 300.78342623 -0.12908131 C301.86178651 -0.12709026 302.94014679 -0.12509921 304.05118465 -0.12304783 C304.98947359 -0.12342755 305.92776253 -0.12380727 306.89448446 -0.1241985 C309 0 309 0 310 1 C310 36.31 310 71.62 310 108 C207.7 108 105.4 108 0 108 C0 72.36 0 36.72 0 0 Z M6 7 C6 38.35 6 69.7 6 102 C37.35 102 68.7 102 101 102 C101 70.65 101 39.3 101 7 C69.65 7 38.3 7 6 7 Z M107 7 C107 38.35 107 69.7 107 102 C138.35 102 169.7 102 202 102 C202 70.65 202 39.3 202 7 C170.65 7 139.3 7 107 7 Z M208 7 C208 38.35 208 69.7 208 102 C239.68 102 271.36 102 304 102 C304 70.65 304 39.3 304 7 C272.32 7 240.64 7 208 7 Z " fill="#EFAFFB" transform="translate(387,204)"/>
<path d="M0 0 C1.68762851 1.6454378 3.3540349 3.31288577 5 5 C11.5966159 6.46393566 18.46956881 6.30950144 25.19824219 6.5090332 C26.5419874 6.5516898 27.88572158 6.59469506 29.22944546 6.63801861 C32.13415648 6.73092147 35.03893 6.82136667 37.94377708 6.90991211 C42.63242724 7.05285198 47.32089474 7.20127847 52.00935364 7.3503418 C58.74657348 7.56399987 65.48386784 7.7751468 72.22122192 7.98452759 C88.96931669 8.50518712 105.71701696 9.0383381 122.46472478 9.57127547 C125.14445784 9.65649612 127.82419576 9.74156266 130.50393486 9.8265934 C154.51039709 10.5886563 178.51564648 11.37932121 202.51953125 12.21875 C203.19828009 12.24247106 203.87702893 12.26619213 204.57634592 12.29063201 C217.90035933 12.75646308 231.22414998 13.22848411 244.54778767 13.70493507 C249.08416793 13.86690557 253.62059026 14.02767766 258.15701866 14.18829346 C261.20204787 14.2967096 264.24699743 14.40717956 267.29194641 14.51782227 C269.11723494 14.58269726 270.94252669 14.64748165 272.76782227 14.7121582 C273.96216196 14.75649726 273.96216196 14.75649726 275.18062973 14.80173206 C277.45357328 14.88105549 279.72643609 14.94145096 282 15 C282.89041426 15.0347814 283.78082851 15.0695628 284.69822502 15.10539818 C285.59150568 15.12811602 286.48478634 15.15083385 287.40513611 15.17424011 C288.62450819 15.21384999 288.62450819 15.21384999 289.86851406 15.25426006 C293.28940629 14.84618968 294.77960131 12.46710965 297 10 C300.86719695 9.27490057 302.43721126 9.66232676 305.8125 11.6875 C308.29855004 14.31561005 309 15.39758294 309 19 C308 22.1875 308 22.1875 306 25 C302.8910286 26.19995387 300.33826236 27 297 27 C295.12242297 29.44329649 293.36175341 31.89625141 291.625 34.4375 C290.5326899 36.01051238 289.44023817 37.58342641 288.34765625 39.15625 C287.78965332 39.96449219 287.23165039 40.77273437 286.65673828 41.60546875 C284.14764406 45.23193444 281.60671978 48.83562807 279.0625 52.4375 C278.57740967 53.12537598 278.09231934 53.81325195 277.5925293 54.52197266 C262.60144848 75.74563153 262.60144848 75.74563153 258.32397461 81.09667969 C256.77400076 82.91307959 256.77400076 82.91307959 257.1015625 85.18359375 C257.27429688 85.92738281 257.44703125 86.67117187 257.625 87.4375 C258.18324678 91.19636164 258.20522951 91.68574231 256 95.0625 C252.2763782 97.46733908 250.35570567 97.71275184 246 97 C242.94756488 94.91149176 242.15425028 93.56953951 241.1875 90 C241 87 241 87 241.66259766 85.06762695 C242.2287188 82.93209766 242.2287188 82.93209766 240.90771484 81.00463867 C240.06781006 79.97173706 240.06781006 79.97173706 239.2109375 78.91796875 C238.59863281 78.15033203 237.98632812 77.38269531 237.35546875 76.59179688 C236.70191406 75.79837891 236.04835938 75.00496094 235.375 74.1875 C234.11075576 72.61947519 232.84771622 71.05047823 231.5859375 69.48046875 C230.97266602 68.72733398 230.35939453 67.97419922 229.72753906 67.19824219 C228.13595063 65.17299314 226.69060328 63.10371036 225.2578125 60.96484375 C223.25243303 57.6377581 223.25243303 57.6377581 219.5 57.375 C217.7675 57.189375 217.7675 57.189375 216 57 C213.0625 54.625 213.0625 54.625 211 52 C211 51.01 211 50.02 211 49 C210.33234808 48.95011775 209.66469616 48.9002355 208.97681236 48.84884167 C202.25724068 48.29922581 195.72249491 47.34441832 189.10400391 46.07739258 C187.56166643 45.78884809 187.56166643 45.78884809 185.98817062 45.49447441 C183.76957772 45.07889801 181.55140823 44.66105589 179.33362961 44.24115562 C174.53722856 43.33323951 169.73869459 42.43684561 164.94024849 41.53981113 C162.42224849 41.06904522 159.90434987 40.59773669 157.386549 40.12590694 C144.14869412 37.64693049 130.89953922 35.23121068 117.6484375 32.82421875 C115.29501989 32.39635217 112.941606 31.96846518 110.5881958 31.54055786 C105.88132033 30.68496343 101.17434265 29.82993422 96.46728516 28.9753418 C91.69243451 28.10843879 86.91769563 27.24092445 82.14306641 26.37280273 C80.9493681 26.15576628 79.75566978 25.93872982 78.5257988 25.7151165 C76.13755336 25.28087614 73.74931124 24.84661754 71.36107254 24.41234016 C65.63197976 23.37088087 59.90260839 22.33100581 54.17254639 21.29489136 C52.02616122 20.90673184 49.87977851 20.51855876 47.73339844 20.13037109 C46.70969524 19.94525908 45.68599205 19.76014706 44.63126755 19.56942558 C39.34397832 18.61168035 34.05901451 17.64305226 28.77766228 16.65308285 C26.71925936 16.26747376 24.66025838 15.8852658 22.60098267 15.50434875 C20.29095655 15.07584684 17.982178 14.64052346 15.67514038 14.19621277 C14.70549347 14.01778336 13.73584656 13.83935394 12.73681641 13.65551758 C11.92967194 13.50246658 11.12252747 13.34941559 10.29092407 13.19172668 C6.07045595 12.83851709 3.51382835 13.65744777 0 16 C-3.01689707 16.33521079 -5.09775379 16.55946915 -8 16 C-10.5625 13.9375 -10.5625 13.9375 -12 11 C-12 7.07983866 -11.55226285 4.82839428 -9.375 1.5625 C-5.99762021 -0.65946039 -3.96476406 -0.62601538 0 0 Z M34 12 C36.97787053 13.54694913 39.50230358 14.42453617 42.81713867 15.00219727 C43.781866 15.17357712 44.74659332 15.34495697 45.74055481 15.52153015 C47.31337471 15.79124382 47.31337471 15.79124382 48.91796875 16.06640625 C50.02085739 16.26083817 51.12374603 16.45527008 52.26005554 16.65559387 C54.6480572 17.07596204 57.0365529 17.49353111 59.42547607 17.90863037 C64.53834553 18.79728768 69.64874516 19.69975975 74.75927734 20.60174561 C77.38221363 21.06466721 80.00523942 21.52704354 82.62841797 21.98858643 C93.42674739 23.89087144 104.21361452 25.85104342 114.9956665 27.84329224 C117.88858455 28.37750857 120.78187698 28.90964976 123.67529297 29.44116211 C132.94757529 31.1450597 142.21891797 32.85383315 151.48779297 34.57617188 C158.32894708 35.84739229 165.17122712 37.11237829 172.01462555 38.37146187 C175.77612911 39.06382667 179.53700321 39.75928428 183.29656982 40.46209717 C186.83258639 41.12309068 190.36996251 41.776244 193.90851021 42.42354584 C195.85175631 42.78119 197.79344828 43.14724596 199.73509216 43.51348877 C200.8999263 43.72511658 202.06476044 43.93674438 203.26489258 44.15478516 C204.28069901 44.34303864 205.29650543 44.53129211 206.34309387 44.72525024 C210.19981515 45.12407247 212.19257951 44.5524456 215.375 42.375 C219.32883655 40.30394276 222.20013633 41.49208894 226.3327179 42.65827942 C229.65216884 43.08355304 231.55325151 42.39710305 234.67651367 41.2175293 C235.79084274 40.80347336 236.90517181 40.38941742 238.05326843 39.96281433 C239.24611954 39.50457779 240.43897064 39.04634125 241.66796875 38.57421875 C242.89912918 38.11143021 244.13028961 37.64864166 245.39875793 37.17182922 C247.99987869 36.19331977 250.59764341 35.20652875 253.19311523 34.21313477 C256.52089415 32.93970266 259.85441519 31.68222911 263.19031811 30.43025494 C266.37278726 29.23460154 269.55158337 28.02937014 272.73046875 26.82421875 C273.92939255 26.3720549 275.12831635 25.91989105 276.36357117 25.45402527 C277.46844376 25.03051285 278.57331635 24.60700043 279.71166992 24.1706543 C280.68698166 23.79901657 281.6622934 23.42737885 282.66716003 23.04447937 C285.12902267 22.10859143 285.12902267 22.10859143 287 20 C258.59746171 18.68471662 230.19462141 17.52676632 201.77725935 16.58563757 C197.90785845 16.45724465 194.03850702 16.3273894 190.1691519 16.19762528 C181.03179056 15.89127848 171.89434314 15.58760676 162.75683594 15.28564453 C153.43309206 14.97746877 144.10953387 14.66405889 134.78604543 14.3482579 C126.6592004 14.07320807 118.53224186 13.80170033 110.40518916 13.53285706 C105.6033 13.37396207 100.80146279 13.21380265 95.99973679 13.05004501 C75.32470173 12.3463584 54.68993116 11.77755215 34 12 Z M284.09155273 26.07958984 C282.87696884 26.53361176 281.66238495 26.98763367 280.41099548 27.45541382 C279.08509376 27.95698776 277.75929563 28.4588356 276.43359375 28.9609375 C275.07514133 29.4720876 273.71658373 29.98295823 272.35792542 30.49356079 C269.51122287 31.56472191 266.66592183 32.63950698 263.8215332 33.71679688 C260.17338477 35.09813167 256.52178302 36.47006062 252.86906338 37.83925438 C250.06322935 38.89224678 247.25935476 39.9503769 244.45604134 41.01005936 C243.11022391 41.51804167 241.76378226 42.02437333 240.41671562 42.52903366 C238.5355147 43.23463977 236.65720867 43.94794947 234.77905273 44.66162109 C233.17379982 45.26784805 233.17379982 45.26784805 231.53611755 45.88632202 C228.33098782 47.29378139 227.27440481 48.31864769 225.96484375 51.5703125 C226.02007784 56.95870506 229.19627495 59.87029532 232.5625 63.875 C233.81438611 65.41358749 235.0656927 66.95264669 236.31640625 68.4921875 C236.93918457 69.23694336 237.56196289 69.98169922 238.20361328 70.74902344 C240 73 240 73 241.55810547 75.35253906 C244.54575913 79.93820645 244.54575913 79.93820645 249.55078125 81.90234375 C254.11926884 80.70719014 255.74019872 78.35182427 258.1875 74.5625 C258.88286865 73.55183472 258.88286865 73.55183472 259.59228516 72.52075195 C260.57811143 71.08623776 261.55446227 69.64517275 262.52197266 68.19824219 C264.4321063 65.35733644 266.40950011 62.56739404 268.3918457 59.77661133 C269.89109014 57.66483608 271.3793397 55.5455968 272.8671875 53.42578125 C275.05513192 50.32073855 277.27154097 47.23838554 279.5078125 44.16796875 C280.09062988 43.36721924 280.67344727 42.56646973 281.27392578 41.74145508 C282.39161717 40.20909544 283.512203 38.67884107 284.63623047 37.15112305 C287.73546308 32.90028701 290.47860652 28.61851401 293 24 C289.53193723 24 287.33866435 24.85904705 284.09155273 26.07958984 Z " fill="#000000" transform="translate(363,81)"/>
<path d="M0 0 C8.91 0 17.82 0 27 0 C30.13104449 7.51450679 33.22509208 15.01962324 36.1796875 22.6015625 C36.55553986 23.56291107 36.93139221 24.52425964 37.31863403 25.51473999 C38.50534191 28.55100575 39.69019314 31.587992 40.875 34.625 C41.66003656 36.63416136 42.44519208 38.64327623 43.23046875 40.65234375 C47.83263338 52.43010478 52.42088559 64.21325977 57 76 C67.47110676 50.85274017 77.19485589 25.41208852 87 0 C95.91 0 104.82 0 114 0 C114 1.32 114 2.64 114 4 C112.71802734 4.18175781 112.71802734 4.18175781 111.41015625 4.3671875 C109.75306641 4.61855469 109.75306641 4.61855469 108.0625 4.875 C106.96035156 5.03742188 105.85820312 5.19984375 104.72265625 5.3671875 C103.82417969 5.57601562 102.92570312 5.78484375 102 6 C100.52454594 8.95090812 100.86125633 11.93735204 100.87060547 15.171875 C100.86885315 15.91022583 100.86710083 16.64857666 100.86529541 17.40930176 C100.86088488 19.8562249 100.86381208 22.30307609 100.8671875 24.75 C100.86651423 26.4462892 100.86554401 28.14257831 100.86428833 29.83886719 C100.86281244 33.39649371 100.86496243 36.95409514 100.86962891 40.51171875 C100.87532613 45.07845048 100.87204655 49.64512345 100.86605644 54.21185303 C100.8624479 57.71533656 100.86359077 61.21880609 100.86618423 64.72229004 C100.86685269 66.40645352 100.86602791 68.09061826 100.86370468 69.77478027 C100.86117338 72.12592957 100.86502553 74.47698287 100.87060547 76.828125 C100.86756912 77.87861023 100.86756912 77.87861023 100.86447144 78.95031738 C100.83600317 82.59814191 100.83600317 82.59814191 102 86 C104.80980673 86.69227032 104.80980673 86.69227032 108.0625 87.125 C109.16722656 87.29257813 110.27195312 87.46015625 111.41015625 87.6328125 C112.26480469 87.75398438 113.11945313 87.87515625 114 88 C114 89.32 114 90.64 114 92 C101.13 92 88.26 92 75 92 C75 90.68 75 89.36 75 88 C75.85464844 87.86722656 76.70929688 87.73445313 77.58984375 87.59765625 C78.69457031 87.42105469 79.79929687 87.24445313 80.9375 87.0625 C82.03964844 86.88847656 83.14179688 86.71445313 84.27734375 86.53515625 C86.90426929 86.28154864 86.90426929 86.28154864 88 85 C88.09496708 82.59651714 88.12558862 80.22189018 88.11352539 77.81811523 C88.11367142 77.06694427 88.11381744 76.31577332 88.1139679 75.5418396 C88.11326863 73.04739541 88.10547564 70.55302497 88.09765625 68.05859375 C88.09579212 66.33366436 88.09436819 64.60873443 88.09336853 62.88380432 C88.08954297 58.33487497 88.07971238 53.78597733 88.06866455 49.23706055 C88.05845124 44.59879994 88.05387108 39.96053423 88.04882812 35.32226562 C88.03809014 26.21482978 88.02101327 17.10741752 88 8 C87.5784111 9.09886536 87.1568222 10.19773071 86.72245789 11.32989502 C79.6011957 29.88989888 72.46216832 48.4428121 65.24707031 66.96658325 C64.54215194 68.77677384 63.83788481 70.58721817 63.13427734 72.3979187 C62.14747058 74.93662196 61.15810884 77.474314 60.16796875 80.01171875 C59.87589035 80.76418884 59.58381195 81.51665894 59.28288269 82.29193115 C57.9871531 85.60411071 56.67767767 88.86067439 55 92 C53.10430908 91.70166016 53.10430908 91.70166016 51 91 C49.6770655 88.44237823 48.65519735 86.06328215 47.671875 83.375 C47.36542053 82.57662216 47.05896606 81.77824432 46.7432251 80.95567322 C45.73095838 78.30906181 44.74071807 75.65474458 43.75 73 C43.05241983 71.1654731 42.35317931 69.33157675 41.65234375 67.49829102 C40.1830553 63.65115743 38.7211511 59.80132898 37.26367188 55.94970703 C33.93236325 47.16774055 30.50016221 38.4251572 27.07385254 29.67993164 C25.3577448 25.2972925 23.64778845 20.9122563 21.9375 16.52734375 C21.36331152 15.05589639 20.78909614 13.58445953 20.21484375 12.11303711 C19.81394531 11.08573486 19.41304687 10.05843262 19 9 C18.95366266 18.31853458 18.91812369 27.6370295 18.89637566 36.95565414 C18.88593778 41.28265197 18.8717785 45.60957097 18.84912109 49.93652344 C18.82739286 54.11215235 18.8154314 58.28770545 18.81024551 62.46338654 C18.80654972 64.05659427 18.7993328 65.64979786 18.78853989 67.24297333 C18.77402515 69.47424798 18.77202204 71.70520918 18.77294922 73.93652344 C18.76628738 75.84180817 18.76628738 75.84180817 18.75949097 77.7855835 C18.98714125 80.82814209 19.25277473 82.52924861 21 85 C23.62627991 86.1341403 23.62627991 86.1341403 26.625 86.75 C28.12933594 87.11351562 28.12933594 87.11351562 29.6640625 87.484375 C30.43492188 87.65453125 31.20578125 87.8246875 32 88 C32 89.32 32 90.64 32 92 C21.44 92 10.88 92 0 92 C0 90.68 0 89.36 0 88 C0.77085938 87.81824219 1.54171875 87.63648438 2.3359375 87.44921875 C3.33882813 87.19785156 4.34171875 86.94648438 5.375 86.6875 C6.37273437 86.44386719 7.37046875 86.20023437 8.3984375 85.94921875 C11.3084986 85.17806142 11.3084986 85.17806142 13 82 C13.18365409 79.49233291 13.25246496 77.09772507 13.22705078 74.59106445 C13.22734283 73.83960144 13.22763489 73.08813843 13.22793579 72.31390381 C13.22654253 69.83024547 13.21098166 67.34688718 13.1953125 64.86328125 C13.19158235 63.14121159 13.18873539 61.4191398 13.18673706 59.69706726 C13.17910073 55.16456238 13.15945225 50.63218568 13.1373291 46.09973145 C13.11687067 41.47470839 13.10773535 36.84966463 13.09765625 32.22460938 C13.07620635 23.14968327 13.0420704 14.07485229 13 5 C8.71 4.67 4.42 4.34 0 4 C0 2.68 0 1.36 0 0 Z " fill="#000000" transform="translate(84,80)"/>
<path d="M0 0 C0.33 3.3 0.66 6.6 1 10 C1.9590625 8.63875 1.9590625 8.63875 2.9375 7.25 C6.71449961 2.76015821 11.53097685 0.52418177 17.30078125 -0.34765625 C23.70166883 -0.60192294 29.38001621 0.8626448 34.375 4.9375 C35.919375 6.89766826 36.92509625 8.76139611 38 11 C38.4125 10.45730469 38.825 9.91460937 39.25 9.35546875 C43.95754194 3.52358086 47.77332506 0.63189507 55.26171875 -0.2734375 C61.90609794 -0.56673777 66.78966894 1.07797299 71.875 5.5 C74.58177151 8.68443707 75.11862478 11.02644077 75.18945312 15.07250977 C75.20617065 15.88667862 75.22288818 16.70084747 75.2401123 17.53968811 C75.25368774 18.4147551 75.26726318 19.28982208 75.28125 20.19140625 C75.29965942 21.0924559 75.31806885 21.99350555 75.33703613 22.92185974 C75.41574381 26.78006081 75.48354691 30.63843596 75.55224609 34.49682617 C75.60391394 37.31177553 75.66117876 40.12657246 75.71875 42.94140625 C75.73232544 43.81849747 75.74590088 44.69558868 75.7598877 45.59925842 C75.72242876 49.93677359 75.72242876 49.93677359 77 54 C79.11846285 54.68729254 79.11846285 54.68729254 81.5625 55.125 C82.38878906 55.29257813 83.21507812 55.46015625 84.06640625 55.6328125 C84.70449219 55.75398438 85.34257812 55.87515625 86 56 C86 57.32 86 58.64 86 60 C75.77 60 65.54 60 55 60 C55 58.68 55 57.36 55 56 C59.95 55.505 59.95 55.505 65 55 C65.07442019 49.14675648 65.12872982 43.2937913 65.16479492 37.44018555 C65.17983724 35.4508789 65.20027623 33.46160517 65.22631836 31.47241211 C65.26290246 28.60522311 65.27977218 25.73847441 65.29296875 22.87109375 C65.30845261 21.98852402 65.32393646 21.10595428 65.33988953 20.19664001 C65.34137274 14.69598309 64.63374671 10.8624548 62 6 C59.4932761 4.15682066 57.92533964 3.9293377 54.8515625 4.1640625 C49.47207445 5.07553722 46.39043686 6.54399726 43 11 C39.51899444 16.59103533 38.42859746 21.12250881 38.609375 27.65625 C38.61786469 28.83785706 38.61786469 28.83785706 38.62652588 30.04333496 C38.64870098 32.52954034 38.69885663 35.01423928 38.75 37.5 C38.77008961 39.19789567 38.78833604 40.89581421 38.8046875 42.59375 C38.8485031 46.72973639 38.91739395 50.8646139 39 55 C39.63808594 55.04898438 40.27617187 55.09796875 40.93359375 55.1484375 C41.75988281 55.22320312 42.58617187 55.29796875 43.4375 55.375 C44.67306641 55.47941406 44.67306641 55.47941406 45.93359375 55.5859375 C46.61550781 55.72257812 47.29742187 55.85921875 48 56 C48.33 56.66 48.66 57.32 49 58 C48.505 58.99 48.505 58.99 48 60 C38.1 60 28.2 60 18 60 C18 58.68 18 57.36 18 56 C20.97 55.34 23.94 54.68 27 54 C27.0494981 47.96770418 27.08576625 41.93552704 27.10986328 35.90307617 C27.11991069 33.85162293 27.13355092 31.80018396 27.15087891 29.7487793 C27.17518246 26.79732738 27.18649582 23.8460651 27.1953125 20.89453125 C27.20563507 19.97976517 27.21595764 19.06499908 27.22659302 18.12251282 C27.23732084 11.8269906 27.23732084 11.8269906 25 6 C21.78689384 3.76056237 19.27495995 3.91250701 15.5625 4.5625 C9.74766306 6.0815173 6.43386771 8.72558914 3.1875 13.875 C0.33785567 21.37406402 0.84869902 29.2752896 0.875 37.1875 C0.87113281 38.36248047 0.86726563 39.53746094 0.86328125 40.74804688 C0.86521484 42.4409082 0.86521484 42.4409082 0.8671875 44.16796875 C0.86831543 45.19172607 0.86944336 46.2154834 0.87060547 47.27026367 C0.92207032 50.24454575 0.92207032 50.24454575 2 54 C4.97 54.66 7.94 55.32 11 56 C11 57.32 11 58.64 11 60 C0.77 60 -9.46 60 -20 60 C-20 58.68 -20 57.36 -20 56 C-19.36191406 55.87882812 -18.72382813 55.75765625 -18.06640625 55.6328125 C-16.82697266 55.38144531 -16.82697266 55.38144531 -15.5625 55.125 C-14.32693359 54.88136719 -14.32693359 54.88136719 -13.06640625 54.6328125 C-12.38449219 54.42398438 -11.70257813 54.21515625 -11 54 C-9.86282912 51.72565824 -9.87333616 50.47417045 -9.87060547 47.94921875 C-9.86745331 47.11495361 -9.86430115 46.28068848 -9.86105347 45.42114258 C-9.8630777 44.51904053 -9.86510193 43.61693848 -9.8671875 42.6875 C-9.86623077 41.76283936 -9.86527405 40.83817871 -9.86428833 39.88549805 C-9.86360717 37.92854749 -9.865457 35.97159467 -9.86962891 34.01464844 C-9.87497805 31.01231836 -9.86968175 28.0101379 -9.86328125 25.0078125 C-9.86394204 23.10937467 -9.86522323 21.21093693 -9.8671875 19.3125 C-9.86516327 18.41039795 -9.86313904 17.5082959 -9.86105347 16.57885742 C-9.86420563 15.74459229 -9.86735779 14.91032715 -9.87060547 14.05078125 C-9.87140106 13.31512939 -9.87219666 12.57947754 -9.87301636 11.8215332 C-9.88981884 9.90042145 -9.88981884 9.90042145 -11 8 C-13.11846285 7.31270746 -13.11846285 7.31270746 -15.5625 6.875 C-16.38878906 6.70742187 -17.21507812 6.53984375 -18.06640625 6.3671875 C-18.70449219 6.24601562 -19.34257812 6.12484375 -20 6 C-19.67 4.35 -19.34 2.7 -19 1 C-16.58343806 0.83168225 -14.16676951 0.66528738 -11.75 0.5 C-11.06808594 0.45230469 -10.38617188 0.40460938 -9.68359375 0.35546875 C-6.44268497 0.13521281 -3.2506634 0 0 0 Z " fill="#000000" transform="translate(407,112)"/>
<path d="M0 0 C5.7234375 -0.12375 5.7234375 -0.12375 11.5625 -0.25 C12.75174072 -0.28641602 13.94098145 -0.32283203 15.16625977 -0.36035156 C22.84594513 -0.44051664 27.1402805 0.5004166 32.92578125 5.74609375 C33.38339844 6.30425781 33.84101563 6.86242187 34.3125 7.4375 C34.78300781 7.99308594 35.25351562 8.54867187 35.73828125 9.12109375 C40.05463139 15.54884737 39.6634962 22.52737409 39 30 C37.38424324 36.43548571 34.47064007 40.35290662 29 44 C22 47 22 47 0 47 C0 31.49 0 15.98 0 0 Z " fill="#FBF7FC" transform="translate(421,235)"/>
<path d="M0 0 C0.33 3.63 0.66 7.26 1 11 C1.886875 9.906875 2.77375 8.81375 3.6875 7.6875 C7.51821195 3.23632062 11.06922142 0.68962542 17 0 C22.85808483 -0.38413671 27.86950403 -0.0914527 33 3 C38.67969953 8.31417431 38.92232396 14.81473564 39.20532227 22.21289062 C39.24634075 23.69390528 39.28323034 25.17503892 39.31640625 26.65625 C39.33718735 27.44398804 39.35796844 28.23172607 39.37937927 29.04333496 C39.44410974 31.52881206 39.50339906 34.01438333 39.5625 36.5 C39.60575823 38.19792592 39.64937468 39.89584275 39.69335938 41.59375 C39.79971113 45.72907325 39.90118749 49.86449001 40 54 C42.97 54.66 45.94 55.32 49 56 C49 57.32 49 58.64 49 60 C38.77 60 28.54 60 18 60 C18 58.68 18 57.36 18 56 C22.95 55.505 22.95 55.505 28 55 C28.07442019 49.14675648 28.12872982 43.2937913 28.16479492 37.44018555 C28.17983724 35.4508789 28.20027623 33.46160517 28.22631836 31.47241211 C28.26290246 28.60522311 28.27977218 25.73847441 28.29296875 22.87109375 C28.30845261 21.98852402 28.32393646 21.10595428 28.33988953 20.19664001 C28.34136902 14.70978362 27.71286467 10.81696014 25 6 C21.75644908 4.34642502 19.56499868 3.70600594 15.94140625 4.38671875 C11.25561629 5.91912265 8.06435921 8.06010958 5 12 C2.46342328 17.71829876 1.57423516 22.22566613 1.70703125 28.4375 C1.71339851 29.58581299 1.71339851 29.58581299 1.71989441 30.75732422 C1.73651672 33.17192687 1.77413494 35.58565511 1.8125 38 C1.82756822 39.64972742 1.84125286 41.29946809 1.85351562 42.94921875 C1.88636583 46.9664762 1.93803027 50.98309052 2 55 C5.3 55.33 8.6 55.66 12 56 C12 57.32 12 58.64 12 60 C1.77 60 -8.46 60 -19 60 C-19 58.68 -19 57.36 -19 56 C-16.03 55.34 -13.06 54.68 -10 54 C-10 38.82 -10 23.64 -10 8 C-14.455 7.01 -14.455 7.01 -19 6 C-18.67 4.35 -18.34 2.7 -18 1 C-15.75013201 0.83156069 -13.50009983 0.66531346 -11.25 0.5 C-9.37054688 0.36078125 -9.37054688 0.36078125 -7.453125 0.21875 C-4.97265229 0.06161598 -2.48544483 0 0 0 Z " fill="#000000" transform="translate(295,112)"/>
<path d="M0 0 C3.62197635 0.78738616 5.33248039 1.93719356 7.875 4.625 C9.26967793 7.93736007 8.95593447 9.36702139 7.875 12.8125 C5.27092798 16.47447628 3.2117555 16.836499 -1.125 17.625 C-1.785 17.625 -2.445 17.625 -3.125 17.625 C-5.00257703 20.06829649 -6.76324659 22.52125141 -8.5 25.0625 C-9.5923101 26.63551238 -10.68476183 28.20842641 -11.77734375 29.78125 C-12.33534668 30.58949219 -12.89334961 31.39773437 -13.46826172 32.23046875 C-15.97735594 35.85693444 -18.51828022 39.46062807 -21.0625 43.0625 C-21.54759033 43.75037598 -22.03268066 44.43825195 -22.5324707 45.14697266 C-37.52355152 66.37063153 -37.52355152 66.37063153 -41.80102539 71.72167969 C-43.35099924 73.53807959 -43.35099924 73.53807959 -43.0234375 75.80859375 C-42.85070312 76.55238281 -42.67796875 77.29617187 -42.5 78.0625 C-41.94175322 81.82136164 -41.91977049 82.31074231 -44.125 85.6875 C-47.8486218 88.09233908 -49.76929433 88.33775184 -54.125 87.625 C-57.17743512 85.53649176 -57.97074972 84.19453951 -58.9375 80.625 C-59.125 77.625 -59.125 77.625 -58.46240234 75.69262695 C-57.8962812 73.55709766 -57.8962812 73.55709766 -59.21728516 71.62963867 C-60.05718994 70.59673706 -60.05718994 70.59673706 -60.9140625 69.54296875 C-61.52636719 68.77533203 -62.13867188 68.00769531 -62.76953125 67.21679688 C-63.42308594 66.42337891 -64.07664062 65.62996094 -64.75 64.8125 C-66.01424424 63.24447519 -67.27728378 61.67547823 -68.5390625 60.10546875 C-69.15233398 59.35233398 -69.76560547 58.59919922 -70.39746094 57.82324219 C-71.98904937 55.79799314 -73.43439672 53.72871036 -74.8671875 51.58984375 C-76.87256697 48.2627581 -76.87256697 48.2627581 -80.625 48 C-82.3575 47.814375 -82.3575 47.814375 -84.125 47.625 C-87.47138613 45.13301033 -88.91309054 43.75518381 -89.6875 39.625 C-88.98064038 35.85508205 -87.94331785 34.22081908 -85.125 31.625 C-81.98957083 30.64517838 -80.1637884 30.08885115 -77.1875 31.625 C-73.31159263 33.50422781 -69.27193745 31.98877251 -65.34725952 30.74398804 C-61.97018068 29.55905793 -58.61446008 28.32636969 -55.26171875 27.07421875 C-54.03338821 26.61900345 -52.80505768 26.16378815 -51.539505 25.69477844 C-48.95142661 24.73393531 -46.36559488 23.76730666 -43.78100586 22.79711914 C-40.46971329 21.55521852 -37.15147016 20.33316237 -33.83105755 19.11589336 C-30.65730639 17.9481268 -27.49130255 16.75994779 -24.32421875 15.57421875 C-23.13156906 15.13865158 -21.93891937 14.70308441 -20.71012878 14.25431824 C-19.06250298 13.62895927 -19.06250298 13.62895927 -17.3815918 12.9909668 C-16.41231247 12.6298027 -15.44303314 12.26863861 -14.44438171 11.89653015 C-11.76712346 10.42880512 -11.21537031 9.4122595 -10.125 6.625 C-7.14765075 3.27931889 -4.43981598 0.8879632 0 0 Z M-16.03344727 16.70458984 C-17.24803116 17.15861176 -18.46261505 17.61263367 -19.71400452 18.08041382 C-21.03990624 18.58198776 -22.36570437 19.0838356 -23.69140625 19.5859375 C-25.04985867 20.0970876 -26.40841627 20.60795823 -27.76707458 21.11856079 C-30.61377713 22.18972191 -33.45907817 23.26450698 -36.3034668 24.34179688 C-39.95161523 25.72313167 -43.60321698 27.09506062 -47.25593662 28.46425438 C-50.06177065 29.51724678 -52.86564524 30.5753769 -55.66895866 31.63505936 C-57.01477609 32.14304167 -58.36121774 32.64937333 -59.70828438 33.15403366 C-61.5894853 33.85963977 -63.46779133 34.57294947 -65.34594727 35.28662109 C-66.95120018 35.89284805 -66.95120018 35.89284805 -68.58888245 36.51132202 C-71.79401218 37.91878139 -72.85059519 38.94364769 -74.16015625 42.1953125 C-74.10492216 47.58370506 -70.92872505 50.49529532 -67.5625 54.5 C-66.31061389 56.03858749 -65.0593073 57.57764669 -63.80859375 59.1171875 C-63.18581543 59.86194336 -62.56303711 60.60669922 -61.92138672 61.37402344 C-60.125 63.625 -60.125 63.625 -58.56689453 65.97753906 C-55.57924087 70.56320645 -55.57924087 70.56320645 -50.57421875 72.52734375 C-46.00573116 71.33219014 -44.38480128 68.97682427 -41.9375 65.1875 C-41.24213135 64.17683472 -41.24213135 64.17683472 -40.53271484 63.14575195 C-39.54688857 61.71123776 -38.57053773 60.27017275 -37.60302734 58.82324219 C-35.6928937 55.98233644 -33.71549989 53.19239404 -31.7331543 50.40161133 C-30.23390986 48.28983608 -28.7456603 46.1705968 -27.2578125 44.05078125 C-25.06986808 40.94573855 -22.85345903 37.86338554 -20.6171875 34.79296875 C-20.03437012 33.99221924 -19.45155273 33.19146973 -18.85107422 32.36645508 C-17.73338283 30.83409544 -16.612797 29.30384107 -15.48876953 27.77612305 C-12.38953692 23.52528701 -9.64639348 19.24351401 -7.125 14.625 C-10.59306277 14.625 -12.78633565 15.48404705 -16.03344727 16.70458984 Z " fill="#F8FAFA" transform="translate(663.125,90.375)"/>
<path d="M0 0 C4.38635406 4.20438741 6.87799928 7.41808038 7.17358398 13.67358398 C7.20183989 15.19768363 7.22572962 16.72186823 7.24609375 18.24609375 C7.27902651 19.90430227 7.31223825 21.56250526 7.34570312 23.22070312 C7.39313792 25.83207478 7.43758895 28.44342314 7.47680664 31.05493164 C7.51654831 33.57721887 7.56807972 36.09905545 7.62109375 38.62109375 C7.6295079 39.40036728 7.63792206 40.17964081 7.64659119 40.98252869 C7.6387323 46.37653078 7.6387323 46.37653078 10 51 C11.65 51.33 13.3 51.66 15 52 C15.66 46.72 16.32 41.44 17 36 C18.32 36.33 19.64 36.66 21 37 C21.21311443 42.32786071 21.39320332 47.09963129 19 52 C16.24858076 54.90864319 14.3787459 55.89855021 10.5 56.9375 C6.4748962 57.00937685 5.09568952 56.51001853 2 54 C-0.3125 51.3125 -0.3125 51.3125 -2 49 C-2.76183594 49.72316406 -2.76183594 49.72316406 -3.5390625 50.4609375 C-8.41520272 54.93529837 -11.87962294 57.96498263 -18.7578125 58.0234375 C-26.67767418 57.64630123 -32.6247935 56.20211898 -38.4375 50.6875 C-40.70926078 46.78007145 -41.45754394 43.48518603 -40.62890625 38.984375 C-38.65600829 32.56326611 -34.69962255 29.38294466 -29.2109375 25.84765625 C-21.29353785 21.66815245 -11.74744889 21.174632 -3 20 C-2.8874041 14.0199064 -2.93529927 9.28719363 -6 4 C-9.60451739 0.39548261 -12.56330491 -0.26981335 -17.5 -0.4375 C-21.98196961 -0.27263191 -25.22449423 0.41675921 -29 3 C-29.33 3.66 -29.66 4.32 -30 5 C-29.38125 5.12375 -28.7625 5.2475 -28.125 5.375 C-26 6 -26 6 -24 8 C-23.66984335 11.10347254 -23.49468706 13.15781176 -25.125 15.875 C-27.92446741 17.55468045 -29.79804064 17.45742277 -33 17 C-35.4375 15.5 -35.4375 15.5 -37 13 C-37 8.55450743 -36.61961534 6.090523 -34.4375 2.25 C-25.07874369 -6.38885198 -10.43219704 -7.63053714 0 0 Z M-25.58984375 31.33984375 C-29.05839968 35.42332372 -30.28096202 39.35569606 -30.0625 44.625 C-29.48787723 48.12660751 -28.88753496 49.14130223 -26.5625 52.0625 C-22.4107331 54.94372618 -17.83726858 54.86520251 -13 54 C-9.5583853 52.34610858 -9.5583853 52.34610858 -7 50 C-6.13375 49.319375 -6.13375 49.319375 -5.25 48.625 C-1.49032192 43.7374185 -1.74619341 37.97083748 -1.875 32.125 C-1.88402344 31.34125 -1.89304687 30.5575 -1.90234375 29.75 C-1.92571937 27.83319945 -1.96158347 25.91655809 -2 24 C-10.99686496 23.82826769 -18.83656749 24.84201056 -25.58984375 31.33984375 Z " fill="#000000" transform="translate(247,116)"/>
<path d="M0 0 C2.64 0 5.28 0 8 0 C10.43067293 6.04679887 12.85063699 12.09780195 15.26318359 18.15185547 C16.08526251 20.21110961 16.90979315 22.26938675 17.73681641 24.32666016 C18.9247509 27.28294853 20.10384039 30.24263181 21.28125 33.203125 C21.65310425 34.12305237 22.0249585 35.04297974 22.40808105 35.99078369 C22.74843384 36.8513739 23.08878662 37.71196411 23.43945312 38.59863281 C23.89245789 39.73114471 23.89245789 39.73114471 24.35461426 40.88653564 C25 43 25 43 25 47 C22.03 47 19.06 47 16 47 C15.01 44.69 14.02 42.38 13 40 C6.73 39.67 0.46 39.34 -6 39 C-6.33 40.98 -6.66 42.96 -7 45 C-7.33 45.66 -7.66 46.32 -8 47 C-10.97 47 -13.94 47 -17 47 C-15.72846273 40.62287968 -13.9609588 34.82793113 -11.5234375 28.80859375 C-11.19332672 27.97787857 -10.86321594 27.14716339 -10.52310181 26.29127502 C-9.48008422 23.67076318 -8.42772847 21.05412367 -7.375 18.4375 C-6.66083431 16.64803538 -5.94728679 14.85832391 -5.234375 13.06835938 C-3.4967109 8.70935567 -1.75066893 4.35379606 0 0 Z " fill="#FCF7FC" transform="translate(639,235)"/>
<path d="M0 0 C3.74831976 2.20489398 5.22035853 4.01637635 7.1875 7.875 C7.9375 11.25 7.9375 11.25 8.1875 13.875 C5.2175 13.875 2.2475 13.875 -0.8125 13.875 C-1.10125 13.070625 -1.39 12.26625 -1.6875 11.4375 C-2.54512568 8.7423532 -2.54512568 8.7423532 -4.8125 7.875 C-8.35421978 7.70830682 -8.35421978 7.70830682 -11.8125 7.875 C-13.16868499 9.00034105 -13.16868499 9.00034105 -12.875 11.9375 C-12.854375 12.906875 -12.83375 13.87625 -12.8125 14.875 C-11.69875 15.431875 -10.585 15.98875 -9.4375 16.5625 C-8.71433594 16.92730469 -7.99117187 17.29210937 -7.24609375 17.66796875 C-5.56090427 18.50380109 -3.86463512 19.31752308 -2.16015625 20.11328125 C-1.28230469 20.52964844 -0.40445313 20.94601562 0.5 21.375 C1.32113281 21.7565625 2.14226563 22.138125 2.98828125 22.53125 C6.14966697 24.46289598 7.77893035 26.45276389 8.8046875 30.0234375 C9.40178357 35.1801763 9.35156986 38.4861289 6.1875 42.875 C2.08699642 46.57545445 -1.76076097 47.71019182 -7.15234375 48.02734375 C-12.70880348 47.7091324 -17.73743283 46.15524235 -21.55078125 41.96484375 C-24.00244653 38.27008058 -24.8125 36.42568092 -24.8125 31.875 C-19.46402516 31.43660042 -19.46402516 31.43660042 -16.8125 31.875 C-15.125 34.25 -15.125 34.25 -13.8125 36.875 C-9.6797898 39.40054512 -6.44506261 38.78334561 -1.8125 37.875 C-1.4825 35.895 -1.1525 33.915 -0.8125 31.875 C-3.93113742 29.2873536 -6.96892162 27.92088443 -10.75 26.5 C-16.2293112 24.28822926 -20.09021091 22.31957819 -22.8125 16.875 C-23.24790712 12.61303412 -23.28315428 8.95750484 -21.5625 5 C-15.78167937 -2.01956791 -8.31940285 -2.45490576 0 0 Z " fill="#FBF6FC" transform="translate(549.8125,235.125)"/>
<path d="M0 0 C0.33 17.82 0.66 35.64 1 54 C3.64 54.66 6.28 55.32 9 56 C9 57.32 9 58.64 9 60 C-0.57 60 -10.14 60 -20 60 C-20 58.68 -20 57.36 -20 56 C-17.03 55.34 -14.06 54.68 -11 54 C-11 38.82 -11 23.64 -11 8 C-13.97 7.01 -16.94 6.02 -20 5 C-19.67 3.68 -19.34 2.36 -19 1 C-16.77100213 0.83109082 -14.54179338 0.66496313 -12.3125 0.5 C-10.45044922 0.36078125 -10.45044922 0.36078125 -8.55078125 0.21875 C-5.70498353 0.04343133 -2.85119296 0 0 0 Z " fill="#000000" transform="translate(367,112)"/>
<path d="M0 0 C2.30964329 1.59285744 2.88448353 2.64382423 3.75 5.3125 C4 8 4 8 3.1015625 10.609375 C2.93958684 16.01687028 6.25792238 18.93618981 9.625 22.9375 C10.88917411 24.48734126 12.15221268 26.03810951 13.4140625 27.58984375 C14.02733398 28.33032959 14.64060547 29.07081543 15.27246094 29.83374023 C16.87462454 31.84278455 18.3142978 33.89672269 19.7421875 36.03125 C21.74389869 39.37162949 21.74389869 39.37162949 25.5 39.5625 C26.655 39.706875 27.81 39.85125 29 40 C32 42.625 32 42.625 34 46 C34.06521697 49.84780142 33.86990359 51.96280725 31.375 54.9375 C28.02317947 56.43699866 25.63019782 56.45377473 22 56 C18.94756488 53.91149176 18.15425028 52.56953951 17.1875 49 C17 46 17 46 17.66259766 44.06762695 C18.2287188 41.93209766 18.2287188 41.93209766 16.90771484 40.00463867 C16.34777832 39.3160376 15.7878418 38.62743652 15.2109375 37.91796875 C14.59863281 37.15033203 13.98632812 36.38269531 13.35546875 35.59179688 C12.70191406 34.79837891 12.04835938 34.00496094 11.375 33.1875 C10.11075576 31.61947519 8.84771622 30.05047823 7.5859375 28.48046875 C6.97266602 27.72733398 6.35939453 26.97419922 5.72753906 26.19824219 C4.13595063 24.17299314 2.69060328 22.10371036 1.2578125 19.96484375 C-0.74756697 16.6377581 -0.74756697 16.6377581 -4.5 16.375 C-5.655 16.25125 -6.81 16.1275 -8 16 C-11.34638613 13.50801033 -12.78809054 12.13018381 -13.5625 8 C-12.87206143 4.31766096 -11.63186072 2.63186072 -9 0 C-5.45026831 -1.1832439 -3.60040463 -0.90010116 0 0 Z " fill="#6CDEB7" transform="translate(587,122)"/>
<path d="M0 0 C13.89473684 0 13.89473684 0 18 4 C21.76152167 9.14074628 21.83104618 14.8630436 21 21 C18.9976035 25.004793 16.82001123 27.6587028 13 30 C10 31 10 31 0 31 C0 20.77 0 10.54 0 0 Z " fill="#9B5FDE" transform="translate(430,243)"/>
<path d="M0 0 C31.35 0 62.7 0 95 0 C95 31.35 95 62.7 95 95 C63.65 95 32.3 95 0 95 C0 63.65 0 32.3 0 0 Z M2 2 C0.37436614 5.25126773 0.8709104 8.82537975 0.88647461 12.39697266 C0.88632858 13.26533249 0.88618256 14.13369232 0.8860321 15.02836609 C0.88673039 17.90695672 0.8945189 20.78548314 0.90234375 23.6640625 C0.90420823 25.65660568 0.90563199 27.64914931 0.90663147 29.64169312 C0.91045431 34.89259094 0.92028263 40.14346122 0.93133545 45.39434814 C0.94155457 50.74987414 0.94613017 56.10540457 0.95117188 61.4609375 C0.96190509 71.97397045 0.97897873 82.48698294 1 93 C5.83813922 93.96286103 10.537875 94.14231186 15.45214844 94.12939453 C16.27886551 94.13114685 17.10558258 94.13289917 17.95735168 94.13470459 C20.67471448 94.13908624 23.39201161 94.13619922 26.109375 94.1328125 C28.00172946 94.13348634 29.89408383 94.13445704 31.78643799 94.13571167 C35.74386421 94.13718342 39.70126782 94.1350499 43.65869141 94.13037109 C48.73872541 94.12465849 53.81870676 94.12796577 58.89873886 94.13394356 C62.80196533 94.13754996 66.70517923 94.13641049 70.60840607 94.13381577 C72.48236345 94.13314752 74.35632196 94.13397135 76.23027802 94.13629532 C78.84202625 94.13882481 81.45368793 94.13497775 84.06542969 94.12939453 C84.84362564 94.13141876 85.62182159 94.13344299 86.42359924 94.13552856 C90.3401997 94.19894439 90.3401997 94.19894439 94 93 C94 62.64 94 32.28 94 1 C72.900625 0.9690625 72.900625 0.9690625 51.375 0.9375 C46.93981934 0.928396 42.50463867 0.91929199 37.93505859 0.90991211 C33.9461216 0.90656688 33.9461216 0.90656688 29.95718384 0.90455627 C28.18577829 0.90302456 26.41437375 0.89951551 24.64297485 0.89442444 C21.95385945 0.88708471 19.26480755 0.88609469 16.57568359 0.88647461 C15.39954782 0.88107745 15.39954782 0.88107745 14.19965172 0.87557125 C10.03745292 0.8834213 6.05410311 1.00849808 2 2 Z " fill="#A161CF" transform="translate(393,211)"/>
<path d="M0 0 C31.35 0 62.7 0 95 0 C95 31.35 95 62.7 95 95 C63.65 95 32.3 95 0 95 C0 63.65 0 32.3 0 0 Z M1 1 C0.979375 16.159375 0.95875 31.31875 0.9375 46.9375 C0.928396 51.73144287 0.91929199 56.52538574 0.90991211 61.46459961 C0.90656854 65.74634516 0.90656854 65.74634516 0.90455627 70.02809143 C0.90301651 71.94138318 0.89949092 73.85467393 0.89442444 75.76795959 C0.88714867 78.65904436 0.88609252 81.55006962 0.88647461 84.44116211 C0.8828765 85.29945334 0.87927839 86.15774458 0.87557125 87.04204464 C0.51238202 90.82739633 0.51238202 90.82739633 2 94 C4.78914774 94.10584361 7.55366478 94.14677813 10.34350586 94.14526367 C11.21826065 94.14862228 12.09301544 94.1519809 12.99427795 94.15544128 C15.90114746 94.16498128 18.80795955 94.16689591 21.71484375 94.16796875 C23.72644576 94.17117918 25.73804754 94.17454309 27.74964905 94.17805481 C31.97234641 94.1840537 36.19502328 94.18589393 40.41772461 94.18530273 C45.83984397 94.18520106 51.26183253 94.19885521 56.68392086 94.21607494 C60.84022124 94.22717045 64.99648975 94.2292227 69.15280342 94.22869301 C71.15236423 94.22987676 73.15192577 94.23432047 75.15147209 94.24202538 C77.94344224 94.25177614 80.73512525 94.2489668 83.52709961 94.24291992 C84.35990448 94.24853943 85.19270935 94.25415894 86.05075073 94.25994873 C90.49655111 94.42174739 90.49655111 94.42174739 94 92 C94.1882538 89.1076372 94.25167631 86.31214376 94.22705078 83.41943359 C94.22741239 82.06605865 94.22741239 82.06605865 94.2277813 80.68534279 C94.22628502 77.75627506 94.21103794 74.82745987 94.1953125 71.8984375 C94.19237304 70.09350711 94.190332 68.28857502 94.18920898 66.48364258 C94.17871042 59.78073577 94.15078815 53.07786542 94.125 46.375 C94.08375 31.40125 94.0425 16.4275 94 1 C63.31 1 32.62 1 1 1 Z " fill="#A261D2" transform="translate(494,211)"/>
<path d="M0 0 C4.04678913 2.42807348 5.61014562 4.55984574 7 9 C7.30078125 12.55859375 7.30078125 12.55859375 7.3125 16.4375 C7.32925781 17.71496094 7.34601563 18.99242187 7.36328125 20.30859375 C6.97380052 24.26622057 6.10728498 26.64907143 4 30 C-0.00701694 32.67134463 -3.28876296 32.82653281 -8 32 C-11.28175318 29.47031526 -12.69243777 27.92268669 -14 24 C-14.14703064 21.56551182 -14.22105339 19.1262523 -14.25 16.6875 C-14.27578125 15.39199219 -14.3015625 14.09648437 -14.328125 12.76171875 C-13.91068989 7.97612333 -12.53137113 4.64075478 -9.25 1.125 C-5.95966302 -0.52016849 -3.62891507 -0.44565624 0 0 Z M-7.6328125 7.12890625 C-9.23028815 10.48360512 -9.40094756 12.79814872 -9.375 16.5 C-9.38273437 17.6034375 -9.39046875 18.706875 -9.3984375 19.84375 C-8.95951616 23.32069551 -8.12032218 25.23039256 -6 28 C-3.5 28.83333333 -3.5 28.83333333 -1 28 C2.08519468 24.03648434 2.40673665 20.88312869 2.375 15.9375 C2.38273437 14.72964844 2.39046875 13.52179688 2.3984375 12.27734375 C1.97860049 8.82397851 1.45833082 7.41128143 -1 5 C-4.42774724 4.22875687 -5.46138639 4.29774063 -7.6328125 7.12890625 Z " fill="#F4D2F7" transform="translate(444,334)"/>
<path d="M0 0 C3 1.3125 3 1.3125 5 4 C5.92809852 9.26470044 5.71127995 13.5774401 3.3125 18.375 C0.97049927 21.03348731 -1.42404505 23.56715366 -4 26 C-0.37 26.33 3.26 26.66 7 27 C7 28.65 7 30.3 7 32 C0.07 32 -6.86 32 -14 32 C-14 27 -14 27 -11.6640625 24.6484375 C-10.66117188 23.89820313 -9.65828125 23.14796875 -8.625 22.375 C-4.33468111 19.14660838 -4.33468111 19.14660838 -1 15 C-0.75892674 12.71351152 -0.75892674 12.71351152 -0.875 10.3125 C-0.90207031 9.10013672 -0.90207031 9.10013672 -0.9296875 7.86328125 C-0.95289063 7.24839844 -0.97609375 6.63351562 -1 6 C-6.7974423 5.75571657 -6.7974423 5.75571657 -12 8 C-12.99 6.68 -13.98 5.36 -15 4 C-9.66748425 0.4449895 -6.429745 -0.82964452 0 0 Z " fill="#F3D5F6" transform="translate(647,334)"/>
<path d="M0 0 C1.32 0.33 2.64 0.66 4 1 C2.53068969 5.2657396 0.28209161 8.65343855 -2.375 12.25 C-3.28317246 13.49954934 -4.19069676 14.74956997 -5.09765625 16 C-5.57348145 16.65355469 -6.04930664 17.30710937 -6.53955078 17.98046875 C-8.99778177 21.37974771 -11.40137586 24.81724006 -13.8125 28.25 C-15.87180002 31.16893611 -17.93518311 34.0849644 -20 37 C-20.56750977 37.80179688 -21.13501953 38.60359375 -21.71972656 39.4296875 C-23.45350601 41.87374791 -25.19448682 44.31251862 -26.9375 46.75 C-27.73474487 47.87583496 -27.73474487 47.87583496 -28.5480957 49.02441406 C-31.43761202 53.04914653 -34.3800767 56.61340509 -38 60 C-38.66 58.68 -39.32 57.36 -40 56 C-33.30592749 46.47150039 -26.56453262 36.98046948 -19.7355957 27.5480957 C-14.79292502 20.72051455 -9.89183872 13.86407652 -5 7 C-3.33383119 4.66631061 -1.66694455 2.33313542 0 0 Z " fill="#F9FBFB" transform="translate(656,105)"/>
<path d="M0 0 C0.33 0 0.66 0 1 0 C1.01030746 1.1503624 1.02061493 2.30072479 1.03123474 3.48594666 C1.12879084 14.30205659 1.23150756 25.1181067 1.33933926 35.93411922 C1.39461529 41.49536549 1.44804263 47.05661696 1.49731445 52.61791992 C1.54488915 57.9801209 1.59722918 63.34225573 1.65294075 68.70437813 C1.67339565 70.75498378 1.69210342 72.80560759 1.70907402 74.85624504 C1.73304888 77.7179512 1.7631125 80.57953107 1.79467773 83.44116211 C1.80331093 84.72617111 1.80331093 84.72617111 1.81211853 86.03713989 C1.49489928 89.82674975 1.49489928 89.82674975 3 93 C5.83044221 93.09521025 8.6363167 93.12552324 11.46704102 93.11352539 C12.36917045 93.11364593 13.27129988 93.11376646 14.20076656 93.11389065 C17.13517112 93.11314134 20.06951299 93.1055123 23.00390625 93.09765625 C24.80985483 93.09618689 26.61580384 93.09516614 28.42175293 93.09460449 C35.13534176 93.08935096 41.84892149 93.07538989 48.5625 93.0625 C63.556875 93.041875 78.55125 93.02125 94 93 C94.33 62.31 94.66 31.62 95 0 C95.33 0 95.66 0 96 0 C96 31.35 96 62.7 96 95 C64.32 95 32.64 95 0 95 C0 63.65 0 32.3 0 0 Z " fill="#B775E0" transform="translate(595,211)"/>
<path d="M0 0 C0 8.91 0 17.82 0 27 C2.31 27 4.62 27 7 27 C6.67 28.65 6.34 30.3 6 32 C-0.27 32 -6.54 32 -13 32 C-13 30.35 -13 28.7 -13 27 C-9.535 26.505 -9.535 26.505 -6 26 C-6 19.4 -6 12.8 -6 6 C-8.31 6.33 -10.62 6.66 -13 7 C-12.8125 4.625 -12.8125 4.625 -12 2 C-7.84722249 -0.56495082 -5.19261812 0 0 0 Z " fill="#F5CFF8" transform="translate(545,334)"/>
<path d="M0 0 C0.33 0.66 0.66 1.32 1 2 C0.13117187 1.96519531 -0.73765625 1.93039063 -1.6328125 1.89453125 C-10.3236516 1.463354 -10.3236516 1.463354 -18 5 C-21.26141392 8.6962691 -21.40773249 12.11521982 -21.21875 16.84765625 C-20.93581714 19.63151347 -20.5120357 21.6239439 -19 24 C-17.35941783 24.72850008 -15.68601756 25.3839099 -14 26 C-11.95522051 26.80463401 -9.91364353 27.61744415 -7.875 28.4375 C-6.84117187 28.84871094 -5.80734375 29.25992187 -4.7421875 29.68359375 C-2.20198253 30.90303688 -0.66130908 31.74659806 1 34 C0.9375 37.0625 0.9375 37.0625 0 40 C-2.53328058 42.24097897 -4.105916 41.99621729 -7.5 41.875 C-11.32552237 40.91861941 -12.67541008 40.12925566 -15 37 C-15.875 34.9375 -15.875 34.9375 -16 33 C-15.34 32.01 -14.68 31.02 -14 30 C-14.99 29.67 -15.98 29.34 -17 29 C-17 28.01 -17 27.02 -17 26 C-17.99 25.67 -18.98 25.34 -20 25 C-20 24.34 -20 23.68 -20 23 C-20.66 23 -21.32 23 -22 23 C-24.5978767 17.64187931 -24.28654646 13.11328011 -23.5 7.3125 C-21.73435604 3.41336959 -20.48271192 2.31655056 -16.640625 0.64453125 C-11.18694102 -0.68661943 -5.56852246 -0.28155451 0 0 Z " fill="#9B64D9" transform="translate(549,233)"/>
<path d="M0 0 C3.64581687 -0.02887512 7.29160463 -0.04675585 10.9375 -0.0625 C12.49887695 -0.07506836 12.49887695 -0.07506836 14.09179688 -0.08789062 C15.57583008 -0.09272461 15.57583008 -0.09272461 17.08984375 -0.09765625 C18.46450806 -0.10551147 18.46450806 -0.10551147 19.86694336 -0.11352539 C22 0 22 0 23 1 C23.09543095 2.39143689 23.12188575 3.78768367 23.12025452 5.18238831 C23.12162918 6.08407745 23.12300385 6.9857666 23.12442017 7.91477966 C23.12082489 8.91171341 23.11722961 9.90864716 23.11352539 10.93579102 C23.11367142 11.97956909 23.11381744 13.02334717 23.1139679 14.09875488 C23.11326826 17.56715943 23.10547353 21.03551103 23.09765625 24.50390625 C23.09579225 26.90144318 23.09436826 29.2989805 23.09336853 31.69651794 C23.08954194 38.02095584 23.07971046 44.34537094 23.06866455 50.6697998 C23.05845345 57.11775402 23.05387156 63.56571191 23.04882812 70.01367188 C23.03808832 82.675791 23.02120119 95.33789429 23 108 C21.515 107.505 21.515 107.505 20 107 C20.33 72.02 20.66 37.04 21 1 C14.07 1 7.14 1 0 1 C0 0.67 0 0.34 0 0 Z " fill="#DEB1E8" transform="translate(674,204)"/>
<path d="M0 0 C3.04673012 1.82803807 4.61538931 3.0865496 6 6.375 C6 10.0830775 5.14771284 11.97977882 3 15 C-0.97957441 16.87715774 -3.09220887 17.21854231 -7.375 16.1875 C-10.24234762 13.79804365 -10.55822154 13.14778317 -11.1875 9.625 C-11.35526134 5.95222489 -11.08920973 5.13246293 -8.9375 1.9375 C-5.48997454 -0.33639977 -4.0433941 -0.75813639 0 0 Z " fill="#6BE2B8" transform="translate(666,91)"/>
<path d="M0 0 C3 2.5625 3 2.5625 5 6 C5.06521697 9.84780142 4.86990359 11.96280725 2.375 14.9375 C-0.97682053 16.43699866 -3.36980218 16.45377473 -7 16 C-10.08376046 13.89005863 -10.85378757 12.55110841 -11.8125 8.9375 C-12 6 -12 6 -11 3 C-7.65387019 -0.47482711 -4.67540603 -0.738222 0 0 Z " fill="#6BDFB7" transform="translate(616,162)"/>
<path d="M0 0 C3 2 3 2 5 5 C5.43054136 8.8824256 4.84973599 11.91233793 2.4375 15 C-1.10658041 16.45398171 -4.23607497 16.80820476 -8 16 C-10.5625 13.9375 -10.5625 13.9375 -12 11 C-12 7.07983866 -11.55226285 4.82839428 -9.375 1.5625 C-5.99762021 -0.65946039 -3.96476406 -0.62601538 0 0 Z " fill="#69E2B9" transform="translate(363,81)"/>
<path d="M0 0 C3.625 0.375 3.625 0.375 6 2.1875 C7.625 4.375 7.625 4.375 8.625 7.375 C11.265 7.705 13.905 8.035 16.625 8.375 C14.05286866 9.99449011 12.94830841 10.41908751 9.875 10 C8.76125 9.690625 8.76125 9.690625 7.625 9.375 C8.95832095 13.37496286 11.1207827 14.21282337 14.625 16.375 C14.295 17.035 13.965 17.695 13.625 18.375 C9.625 16.375 5.625 14.375 1.625 12.375 C0.52414062 11.83488281 -0.57671875 11.29476562 -1.7109375 10.73828125 C-4.375 9.375 -4.375 9.375 -5.375 8.375 C-5.5625 5.4375 -5.5625 5.4375 -5.375 2.375 C-3.375 0.375 -3.375 0.375 0 0 Z " fill="#966CCA" transform="translate(541.375,241.625)"/>
<path d="M0 0 C4.55114505 4.29974847 8.35100024 9.06105778 12.1875 14 C12.81591797 14.7940625 13.44433594 15.588125 14.09179688 16.40625 C14.69443359 17.1796875 15.29707031 17.953125 15.91796875 18.75 C16.46219482 19.44609375 17.0064209 20.1421875 17.56713867 20.859375 C19.10320404 23.15418181 20.06374339 25.40894452 21 28 C20.01 28.66 19.02 29.32 18 30 C10.93364242 21.60760989 4.41921138 12.89090772 -2 4 C-1.34 2.68 -0.68 1.36 0 0 Z " fill="#F9FBFB" transform="translate(588,135)"/>
<path d="M0 0 C0.33 0 0.66 0 1 0 C1 8.91 1 17.82 1 27 C3.31 27 5.62 27 8 27 C7.67 28.65 7.34 30.3 7 32 C0.73 32 -5.54 32 -12 32 C-12 30.35 -12 28.7 -12 27 C-8.37 26.67 -4.74 26.34 -1 26 C-0.67 17.42 -0.34 8.84 0 0 Z " fill="#DBBEDD" transform="translate(544,334)"/>
<path d="M0 0 C2 1 2 1 3.2890625 4.2734375 C3.74216125 5.63806434 4.18713794 7.0054082 4.625 8.375 C4.85445312 9.06078125 5.08390625 9.7465625 5.3203125 10.453125 C6.28795001 13.413635 7 15.86608457 7 19 C3.04 19 -0.92 19 -5 19 C-3.64746536 12.54945018 -1.96939767 6.28894321 0 0 Z " fill="#986EC9" transform="translate(642,247)"/>
<path d="M0 0 C1.21236328 0.02707031 1.21236328 0.02707031 2.44921875 0.0546875 C3.37154297 0.08949219 3.37154297 0.08949219 4.3125 0.125 C8.90475513 9.53502278 8.90475513 9.53502278 8.3125 14.125 C5.96335508 11.77585508 5.58109643 10.16820554 4.6875 7 C4.29691406 5.63488281 4.29691406 5.63488281 3.8984375 4.2421875 C3.70507812 3.54351562 3.51171875 2.84484375 3.3125 2.125 C0.6725 2.125 -1.9675 2.125 -4.6875 2.125 C-4.89922852 2.90327148 -4.89922852 2.90327148 -5.11523438 3.69726562 C-7.40635795 11.72627641 -10.3335887 19.49916331 -13.30322266 27.29589844 C-14.19482253 29.64428684 -15.0720336 31.99775795 -15.94921875 34.3515625 C-16.51735541 35.84929007 -17.08633502 37.34669821 -17.65625 38.84375 C-17.91571411 39.54576538 -18.17517822 40.24778076 -18.44250488 40.97106934 C-19.81170179 44.51644116 -20.43658713 45.95772476 -23.6875 48.125 C-22.72925533 43.84820275 -21.10243552 39.86191479 -19.52734375 35.78125 C-18.48652208 32.95365847 -18.48652208 32.95365847 -18.6875 29.125 C-17.6975 29.125 -16.7075 29.125 -15.6875 29.125 C-15.58953125 28.4959375 -15.4915625 27.866875 -15.390625 27.21875 C-14.47460477 21.97532388 -13.19479024 17.7934207 -10.62890625 13.14453125 C-9.25733641 10.20220094 -8.77238984 7.20058169 -8.27734375 4.0078125 C-6.98259219 -0.12510308 -3.70564939 -0.10741013 0 0 Z " fill="#966DC9" transform="translate(643.6875,232.875)"/>
<path d="M0 0 C0.99 0.495 0.99 0.495 2 1 C1.99777939 2.21220718 1.99555878 3.42441437 1.99327087 4.6733551 C1.97298599 16.10561823 1.95800207 27.53787771 1.94818783 38.97015476 C1.9429726 44.84737969 1.93589962 50.72459008 1.92456055 56.60180664 C1.91368337 62.27521342 1.90771291 67.94860622 1.90512276 73.62202263 C1.90327722 75.78491371 1.89967337 77.94780404 1.89426994 80.11068916 C1.88699545 83.14355235 1.88601177 86.17635799 1.88647461 89.20922852 C1.88287933 90.10043396 1.87928406 90.9916394 1.87557983 91.90985107 C1.88347702 96.70223002 2.0155146 101.29895153 3 106 C3.66 106.33 4.32 106.66 5 107 C3.35 107 1.7 107 0 107 C0 71.69 0 36.38 0 0 Z " fill="#EABCF6" transform="translate(387,205)"/>
<path d="M0 0 C13.89473684 0 13.89473684 0 18 4 C21.40987104 8.88748183 21.34378616 13.27023063 21 19 C20.67 19 20.34 19 20 19 C19.91363281 18.26394531 19.82726562 17.52789062 19.73828125 16.76953125 C18.83356893 10.4863457 18.1593069 6.86948017 13 3 C9.87268146 1.28800934 9.87268146 1.28800934 1 1 C1 10.57 1 20.14 1 30 C11.37808539 29.19112459 11.37808539 29.19112459 15 25 C15.66 24.67 16.32 24.34 17 24 C17.33 23.01 17.66 22.02 18 21 C18.66 21 19.32 21 20 21 C18.64844718 25.42326378 16.80109562 27.40412982 13 30 C10 31 10 31 0 31 C0 20.77 0 10.54 0 0 Z " fill="#956DC6" transform="translate(430,243)"/>
<path d="M0 0 C0.33 0.66 0.66 1.32 1 2 C0.13117187 1.96519531 -0.73765625 1.93039063 -1.6328125 1.89453125 C-10.3236516 1.463354 -10.3236516 1.463354 -18 5 C-21.26141392 8.6962691 -21.40773249 12.11521982 -21.21875 16.84765625 C-20.93581714 19.63151347 -20.5120357 21.6239439 -19 24 C-17.35929646 24.7282267 -15.68581401 25.38335315 -14 26 C-11.91375807 26.82602472 -9.8304941 27.65960337 -7.75 28.5 C-6.69296875 28.9228125 -5.6359375 29.345625 -4.546875 29.78125 C-2 31 -2 31 -1 33 C-1.56847656 32.79503906 -2.13695312 32.59007812 -2.72265625 32.37890625 C-7.5084454 30.70907331 -11.95943201 29.53623064 -17 29 C-17 28.01 -17 27.02 -17 26 C-17.99 25.67 -18.98 25.34 -20 25 C-20 24.34 -20 23.68 -20 23 C-20.66 23 -21.32 23 -22 23 C-24.5978767 17.64187931 -24.28654646 13.11328011 -23.5 7.3125 C-21.73435604 3.41336959 -20.48271192 2.31655056 -16.640625 0.64453125 C-11.18694102 -0.68661943 -5.56852246 -0.28155451 0 0 Z " fill="#966BC9" transform="translate(549,233)"/>
<path d="M0 0 C1.4540625 0.0309375 1.4540625 0.0309375 2.9375 0.0625 C5.9375 6.8125 5.9375 6.8125 5.9375 9.0625 C4.375 9.8125 4.375 9.8125 1.9375 10.0625 C-0.56536409 8.93165563 -2.73257722 7.54110484 -5.0625 6.0625 C-3.98897059 0.08140756 -3.98897059 0.08140756 0 0 Z " fill="#9B5FDF" transform="translate(542.0625,242.9375)"/>
<path d="M0 0 C2.4375 0.375 2.4375 0.375 5 1 C5.33 1.66 5.66 2.32 6 3 C6.825 3.268125 7.65 3.53625 8.5 3.8125 C9.7375 4.4003125 9.7375 4.4003125 11 5 C11.75 7.5625 11.75 7.5625 12 10 C12.33 10.33 12.66 10.66 13 11 C13.15540479 14.01246217 13.23187153 16.9861423 13.25 20 C13.270625 20.82628906 13.29125 21.65257812 13.3125 22.50390625 C13.3501448 28.51766229 12.23221013 33.42452492 10 39 C9.01 38.67 8.02 38.34 7 38 C7.28875 37.51273437 7.5775 37.02546875 7.875 36.5234375 C11.81184498 29.00515715 12.54593856 20.7721138 10.33984375 12.53515625 C8.33148567 8.00548283 5.27880832 5.12672826 1.390625 2.12890625 C0.93171875 1.75636719 0.4728125 1.38382813 0 1 C0 0.67 0 0.34 0 0 Z " fill="#976BCD" transform="translate(448,236)"/>
<path d="M0 0 C0.33 0 0.66 0 1 0 C1.37964752 4.74559401 1.48228172 8.06988525 -0.75 12.375 C-2.71534113 14.66789798 -4.47078947 16.37407894 -7 18 C-7.33 17.34 -7.66 16.68 -8 16 C-8.99 16 -9.98 16 -11 16 C-10.59007812 15.57589844 -10.18015625 15.15179688 -9.7578125 14.71484375 C-5.96922332 10.59090098 -4.12091066 7.49246223 -3 2 C-2.34 2.33 -1.68 2.66 -1 3 C-0.67 2.01 -0.34 1.02 0 0 Z " fill="#F8D8FA" transform="translate(651,340)"/>
<path d="M0 0 C0 2.64 0 5.28 0 8 C-0.99 8 -1.98 8 -3 8 C-3.99 8.495 -3.99 8.495 -5 9 C-5.33 8.01 -5.66 7.02 -6 6 C-7.98 6.33 -9.96 6.66 -12 7 C-11.8125 4.625 -11.8125 4.625 -11 2 C-7.38684234 -0.16789459 -4.14058636 -0.19258541 0 0 Z " fill="#EACBED" transform="translate(544,334)"/>
<path d="M0 0 C0.66 0 1.32 0 2 0 C2.17015625 0.60328125 2.3403125 1.2065625 2.515625 1.828125 C4.17983259 7.31646919 5.45469062 11.03403958 10.68359375 13.93359375 C17.10547609 16.84088455 23.42041821 16.19319393 30 14 C30 14.66 30 15.32 30 16 C23.11195551 19.3790407 18.32532728 19.06948708 11 17 C6.18056452 15.31864327 6.18056452 15.31864327 4.9375 13.125 C4.628125 12.42375 4.31875 11.7225 4 11 C3.29875 10.401875 2.5975 9.80375 1.875 9.1875 C0 7 0 7 -0.25 3.25 C-0.1675 2.1775 -0.085 1.105 0 0 Z " fill="#976DC7" transform="translate(523,266)"/>
<path d="M0 0 C6.27 0 12.54 0 19 0 C22 6 22 6 22 8 C24.97 8 27.94 8 31 8 C31 8.33 31 8.66 31 9 C29.39667209 9.08121924 27.79215974 9.13929134 26.1875 9.1875 C25.29417969 9.22230469 24.40085937 9.25710938 23.48046875 9.29296875 C21 9 21 9 19.17578125 7.73828125 C18 6 18 6 18 2 C12.39 1.67 6.78 1.34 1 1 C0.67 3.64 0.34 6.28 0 9 C-2.75078884 9.91692961 -4.35948913 10.10886083 -7.1875 10.0625 C-9.0746875 10.0315625 -9.0746875 10.0315625 -11 10 C-11 9.34 -11 8.68 -11 8 C-8.03 8 -5.06 8 -2 8 C-1.34 5.36 -0.68 2.72 0 0 Z " fill="#936AC8" transform="translate(633,274)"/>
<path d="M0 0 C0 0.66 0 1.32 0 2 C0.66 2.33 1.32 2.66 2 3 C-6.91 2.67 -15.82 2.34 -25 2 C-25 1.34 -25 0.68 -25 0 C-21.20873402 -0.19628414 -17.41697828 -0.38053896 -13.625 -0.5625 C-12.54476563 -0.61857422 -11.46453125 -0.67464844 -10.3515625 -0.73242188 C-9.3203125 -0.78076172 -8.2890625 -0.82910156 -7.2265625 -0.87890625 C-6.27346191 -0.9260376 -5.32036133 -0.97316895 -4.33837891 -1.02172852 C-2 -1 -2 -1 0 0 Z " fill="#9A72CB" transform="translate(446,233)"/>
<path d="M0 0 C0.66 0.66 1.32 1.32 2 2 C0.68 2 -0.64 2 -2 2 C-2.33 2.66 -2.66 3.32 -3 4 C-4.32 3.67 -5.64 3.34 -7 3 C-9.4294516 6.6441774 -9.16179575 8.71241272 -9 13 C-7.7625 13.144375 -6.525 13.28875 -5.25 13.4375 C-2.43495501 13.78688502 0.2701497 14.20379366 3 15 C-0.91203468 16.48657318 -3.25913717 17.17835587 -7.375 16.1875 C-10.24234762 13.79804365 -10.55822154 13.14778317 -11.1875 9.625 C-11.35526134 5.95222489 -11.08920973 5.13246293 -8.9375 1.9375 C-5.56790826 -0.28499668 -3.95543587 -0.61529002 0 0 Z " fill="#7ED3B5" transform="translate(666,91)"/>
<path d="M0 0 C2.60623142 0.35219343 4.60789115 0.76473469 6.875 2.125 C8.70914844 5.18191406 7.80263105 7.6659941 7 11 C6.01 11.495 6.01 11.495 5 12 C4.67 10.68 4.34 9.36 4 8 C3.67 8.99 3.34 9.98 3 11 C2.67 9.35 2.34 7.7 2 6 C-0.97 5.505 -0.97 5.505 -4 5 C-4 4.67 -4 4.34 -4 4 C-2.35 3.67 -0.7 3.34 1 3 C0.67 2.01 0.34 1.02 0 0 Z " fill="#EFCDF2" transform="translate(644,334)"/>
<path d="M0 0 C0 1.98 0 3.96 0 6 C-0.928125 5.9175 -1.85625 5.835 -2.8125 5.75 C-6.09105222 5.64696955 -6.09105222 5.64696955 -7.875 8 C-8.24625 8.66 -8.6175 9.32 -9 10 C-9 7.03 -9 4.06 -9 1 C-6.04335481 -0.4783226 -3.25770263 -0.06032783 0 0 Z " fill="#EBCCEE" transform="translate(444,334)"/>
<path d="M0 0 C1.32 0.33 2.64 0.66 4 1 C4.33 2.65 4.66 4.3 5 6 C4.01 6.33 3.02 6.66 2 7 C2.33 7.99 2.66 8.98 3 10 C1.35 10 -0.3 10 -2 10 C-1.54177532 6.53058454 -1.10868317 3.32604951 0 0 Z " fill="#9B61DF" transform="translate(641,255)"/>
<path d="M0 0 C1.04005702 3.38018531 1.08004482 6.4780279 1 10 C2.32 10 3.64 10 5 10 C5 10.66 5 11.32 5 12 C7.31 12 9.62 12 12 12 C10 14 10 14 6.125 14.4375 C2.81523525 14.34104055 2.14708585 14.11838617 -0.5625 11.9375 C-2.41355493 8.15490948 -1.98930565 6.03332301 -1 2 C-0.67 1.34 -0.34 0.68 0 0 Z " fill="#7FD7B8" transform="translate(353,83)"/>
<path d="M0 0 C9.24 0 18.48 0 28 0 C28.33 0.66 28.66 1.32 29 2 C23.37916881 2.95706045 17.94572363 3.15140985 12.25 3.125 C10.97576172 3.13080078 10.97576172 3.13080078 9.67578125 3.13671875 C8.85980469 3.13542969 8.04382813 3.13414062 7.203125 3.1328125 C6.46739258 3.13168457 5.73166016 3.13055664 4.97363281 3.12939453 C3 3 3 3 0 2 C0 1.34 0 0.68 0 0 Z " fill="#FABBFF" transform="translate(519,204)"/>
<path d="M0 0 C1.2065625 0.0309375 1.2065625 0.0309375 2.4375 0.0625 C3.0625 2.4375 3.0625 2.4375 3.4375 5.0625 C2.7775 5.7225 2.1175 6.3825 1.4375 7.0625 C-0.6875 6.6875 -0.6875 6.6875 -2.5625 6.0625 C-2.94468767 4.40635343 -3.27645102 2.73792976 -3.5625 1.0625 C-2.5625 0.0625 -2.5625 0.0625 0 0 Z " fill="#F5E3F4" transform="translate(440.5625,346.9375)"/>
<path d="M0 0 C0.5625 1.9375 0.5625 1.9375 1 4 C0.67 4.33 0.34 4.66 0 5 C3.63 5.33 7.26 5.66 11 6 C11 6.33 11 6.66 11 7 C6.38 7 1.76 7 -3 7 C-3.66 5.68 -4.32 4.36 -5 3 C-3 1 -3 1 0 0 Z " fill="#DEC2E0" transform="translate(643,355)"/>
<path d="M0 0 C2.64 0 5.28 0 8 0 C8.33 0.99 8.66 1.98 9 3 C6.36 3 3.72 3 1 3 C0.67 2.01 0.34 1.02 0 0 Z " fill="#F8C9FB" transform="translate(541,362)"/>
<path d="M0 0 C0.66 0 1.32 0 2 0 C2 3.3 2 6.6 2 10 C2.66 10 3.32 10 4 10 C4 10.66 4 11.32 4 12 C1 11 1 11 -0.25 9.375 C-1.30061312 6.04805845 -0.64998375 3.37991551 0 0 Z " fill="#74CEB1" transform="translate(605,165)"/>
<path d="M0 0 C2.31 0.33 4.62 0.66 7 1 C6.67 1.99 6.34 2.98 6 4 C4.02 4 2.04 4 0 4 C0 2.68 0 1.36 0 0 Z " fill="#F7D1FA" transform="translate(532,361)"/>
<path d="M0 0 C2.88437779 1.29299694 4.87219421 2.65941363 7 5 C4.69 5.33 2.38 5.66 0 6 C-0.38218767 4.34385343 -0.71395102 2.67542976 -1 1 C-0.67 0.67 -0.34 0.34 0 0 Z " fill="#FACFFC" transform="translate(637,358)"/>
<path d="M0 0 C1.9375 0.3125 1.9375 0.3125 4 1 C5.1577506 4.47325181 5.06866652 7.36067448 5 11 C4.34 10.67 3.68 10.34 3 10 C3 8.35 3 6.7 3 5 C2.34 5 1.68 5 1 5 C0.67 3.35 0.34 1.7 0 0 Z " fill="#EDCFED" transform="translate(430,343)"/>
<path d="M0 0 C3 2 3 2 3.8125 4.3125 C4.03239421 7.46431702 3.46608783 9.22214938 2 12 C1.01 12.495 1.01 12.495 0 13 C0 12.01 0 11.02 0 10 C0.66 10 1.32 10 2 10 C1.34 6.7 0.68 3.4 0 0 Z " fill="#77CCAF" transform="translate(587,123)"/>
<path d="M0 0 C0.66 0 1.32 0 2 0 C3.93607846 2.8471742 3.98954766 4.15417196 3.75 7.6875 C3.5025 8.780625 3.255 9.87375 3 11 C2.01 11.495 2.01 11.495 1 12 C0.67 8.04 0.34 4.08 0 0 Z " fill="#77D7B7" transform="translate(364,83)"/>
<path d="M0 0 C1.65 0.33 3.3 0.66 5 1 C5 1.66 5 2.32 5 3 C4.34 3 3.68 3 3 3 C2.67 3.99 2.34 4.98 2 6 C-0.97 5.505 -0.97 5.505 -4 5 C-4 4.67 -4 4.34 -4 4 C-2.35 3.67 -0.7 3.34 1 3 C0.67 2.01 0.34 1.02 0 0 Z " fill="#E5C6E8" transform="translate(644,334)"/>
<path d="M0 0 C1.65 0 3.3 0 5 0 C4.67 1.65 4.34 3.3 4 5 C2.68 4.67 1.36 4.34 0 4 C0 2.68 0 1.36 0 0 Z " fill="#F5D1F8" transform="translate(539,334)"/>
<path d="M0 0 C0.66 0.66 1.32 1.32 2 2 C0.515 4.475 0.515 4.475 -1 7 C-1.99 6.01 -2.98 5.02 -4 4 C-3.67 3.34 -3.34 2.68 -3 2 C-2.01 2 -1.02 2 0 2 C0 1.34 0 0.68 0 0 Z " fill="#F0D2F1" transform="translate(650,347)"/>
<path d="M0 0 C0.33 0.66 0.66 1.32 1 2 C-5.75 3 -5.75 3 -8 3 C-8 2.34 -8 1.68 -8 1 C-5.29120665 -0.35439668 -2.99066732 -0.06501451 0 0 Z " fill="#FBCBFD" transform="translate(547,204)"/>
<path d="M0 0 C2.875 -0.125 2.875 -0.125 6 0 C6.66 0.66 7.32 1.32 8 2 C6.68 2 5.36 2 4 2 C3.67 2.66 3.34 3.32 3 4 C2.01 3.34 1.02 2.68 0 2 C0 1.34 0 0.68 0 0 Z " fill="#73D6B4" transform="translate(660,91)"/>
<path d="M0 0 C2 2 2 2 2 5 C0.68 5.33 -0.64 5.66 -2 6 C-1.125 1.125 -1.125 1.125 0 0 Z " fill="#EED1EF" transform="translate(635,359)"/>
<path d="M0 0 C0.33 0.99 0.66 1.98 1 3 C-0.65 3.33 -2.3 3.66 -4 4 C-4.33 3.01 -4.66 2.02 -5 1 C-3 0 -3 0 0 0 Z " fill="#9B66D1" transform="translate(648,261)"/>
<path d="M0 0 C0.99 0.33 1.98 0.66 3 1 C3.73046875 2.84765625 3.73046875 2.84765625 4.1875 5.0625 C4.34605469 5.79597656 4.50460937 6.52945313 4.66796875 7.28515625 C4.83232422 8.13400391 4.83232422 8.13400391 5 9 C4.34 9 3.68 9 3 9 C2.01 6.03 1.02 3.06 0 0 Z " fill="#9B70CD" transform="translate(554,237)"/>
</svg>
